<?xml version="1.0" encoding="UTF-8"?>
<svg version="1.1" viewBox="0 0 2048 2048" width="512" height="512" xmlns="http://www.w3.org/2000/svg">
<path transform="translate(1381,125)" d="m0 0h77l45 4 60 9 36 7 29 7 28 8 35 12 28 11 33 15 20 10 20 11 17 10 7 4 5-2 13-10 15-7 9-3 12-2h23l18 3 18 5 21 10 19 13 13 12 10 10 13 17 9 14 9 16 9 21 7 21 5 22 3 24v23l-3 19-4 15-6 15-7 12-7 9-10 10-14 9-10 5h-2l6 16 16 38 12 36 12 41 6 25 6 33 5 37 1 8v57l-5 35-6 28-8 26-10 25-12 23-13 19-12 17-18 20-12 13-11 9-15 13-14 11-15 10-20 12-11 6h-2l6 21 13 43 9 39 7 36 6 45 2 24 1 19v57l-2 31-4 33-7 36-6 24-10 32-6 15-11 25-8 16-11 19-9 14-13 17-8 10-11 12-9 9h-2l-1 3-14 11-18 13-26 14-21 8-19 5-28 4h-64l-29-2-27-4-19-4-18-5-20-8-19-10-12-9-10-9-7-8-9-14-6-12-6-21-2-14v-27l4-27 7-38 1-11v-43l-3-23-8-38-9-29-9-24-12-27-13-25-9-15h-3l-16 16-7 8-25 25-8 7-10 9-12 10-1 7 6 49 7 43 9 45 13 51 16 48 11 26 13 25 8 12 9 12 14 15 7 7 7 8 12 15 12 19 8 16 6 14 7 21 4 22 1 13v11l-2 16-4 15-8 17-7 9-10 12-17 12-16 8-15 6-24 6-18 3-25 2h-36l-32-2-57-8-40-8-34-8-35-10-32-11-24-10-22-10-24-14-13-8-12-9-13-10-13-12-18-18-9-11-12-15-7-11-12-19-15-28-13-29-12-31-7-20-14-45-9-28-13-47-15-56-5-19-39 4-39 2h-31l-37-2-46-5-17-3-4 1-12 17-13 18-11 17-9 15-9 16-8 16-10 22-8 24-4 17-3 22v14l3 18 10 40 7 32 2 15v25l-3 16-7 16-9 12-13 10-16 8-21 6-14 3-16 2-14 1h-33l-50-4-41-6-28-6-20-6-20-8-15-7-16-9-17-11-16-13-13-11-7-7-7-8-10-11-13-18-13-21-12-25-7-20-7-24-7-30-7-36-7-54-2-23v-73l8-91 6-54 9-65 11-64 8-42 16-72 11-40 18-58 7-20 15-37 12-28 12-24 10-18 8-16 9-16 13-20 11-17 18-27 12-15 10-13 12-15 11-14 22-24 8-8 1-2h2l2-4 13-13 7-8 11-10 8-7 10-9 11-9 13-12 10-8 18-13 19-14 18-13 15-10 18-11 96-56 18-10 29-15 19-10 41-21 17-9 70-32 40-18 32-13 83-33 52-18 41-14 51-15 42-12 57-14 41-9 53-10 40-6 48-6z" fill="#2D3039"/>
<path transform="translate(1510,130)" d="m0 0 53 8 36 7 29 7 28 8 35 12 28 11 33 15 20 10 20 11 17 10 7 4 5-2 13-10 15-7 9-3 12-2h23l18 3 18 5 21 10 19 13 13 12 10 10 13 17 9 14 9 16 9 21 7 21 5 22 3 24v23l-3 19-4 15-6 15-7 12-7 9-10 10-14 9-10 5h-2l6 16 16 38 12 36 12 41 6 25 6 33 5 37 1 8v57l-5 35-6 28-8 26-10 25-12 23-13 19-12 17-18 20-12 13-11 9-15 13-14 11-15 10-20 12-11 6h-2v3l-8 2v13l-4 29-4 14-5 14-8 16-7 11-13 16-4 5-17 11-14 8-25 10-16 4-15 3-11 1-34-1-27-3-27-5-26-8-19-9-16-11-13-13-7-10-9-17-4-13-1-9-13-1-34-6-17-4-31-9-28-10-28-13-14-8-19-12-16-13-10-8-23-23-11-14-13-19-9-16-9-17-11-29-6-21-6-27-4-30-2-20v-47l2-25 4-36 6-35 8-38 13-49 8-27 10-29-1-5-13-11-8-7-15-14-9-11-11-15-10-18-7-16-6-19-4-20-1-8v-31l3-21 6-22 8-20 9-17 10-16 8-10 12-14 11-11 8-7 19-14 19-11 17-8 27-9 28-5h20l28 3 10-9 7-7 14-11 24-16 23-12 6-3z" fill="#F9FAFA"/>
<path transform="translate(449,452)" d="m0 0h3l-5 30-8 42-5 39-3 37-1 44 1 29 4 39 7 38 7 27 10 32 48 129 14 43 9 28 16 62 5 26 9 55 3 31 2 42v31l-1 32-2 31-5 40-10 60-26 36-11 17-9 15-9 16-8 16-10 22-8 24-4 17-3 22v14l3 18 10 40 7 32 2 15v25l-3 16-7 16-9 12-13 10-16 8-21 6-14 3-16 2-14 1h-33l-50-4-41-6-28-6-20-6-20-8-15-7-16-9-17-11-16-13-13-11-7-7-7-8-10-11-13-18-13-21-12-25-7-20-7-24-7-30-7-36-7-54-2-23v-73l8-91 6-54 9-65 11-64 8-42 16-72 11-40 18-58 7-20 15-37 12-28 12-24 10-18 8-16 9-16 13-20 11-17 18-27 12-15 10-13 12-15 11-14 22-24 8-8 1-2h2l2-4 13-13 7-8 11-10 8-7 10-9 11-9 13-12 10-8 18-13 19-14 18-13 15-10z" fill="#2D3039"/>
<path transform="translate(898,233)" d="m0 0h3l-1 5-13 24-13 23-15 28-12 24-11 23-16 32-16 36-13 29-19 47-10 26-17 47-12 37-11 36-13 47-10 43-9 44-8 49-4 31-5 52-2 53v35l3 56 7 55 5 29 14 59 15 54 15 53 19 70 11 40-1 3-39 4-39 2h-31l-37-2-46-5-20-4 1-13 7-39 5-39 2-23 1-16 1-32v-31l-2-42-3-31-9-55-5-26-16-62-13-41-14-41-22-59-20-54-10-30-8-29-6-31-3-21-3-30-1-29 1-44 3-37 5-39 12-64 1-9 26-15 72-42 18-10 29-15 19-10 41-21 17-9 70-32 40-18 32-13z" fill="#F9FAFA"/>
<path transform="translate(1379,226)" d="m0 0h22l20 3 21 7 21 10 11 7 13 10 12 11 9 11 10 16 6 14 4 16v26l-2 12-11 32-15 29-9 13-14 17-7 8-11 11-11 9-10 8-19 12-22 10-15 5-17 4-23 2-17-2-14-6-13-10-14-12-8-8-7-8-11-14-7-11-8-14-7-18-4-16-1-11v-15l2-16 6-20 11-23 8-13 8-12 11-14 11-12 9-9 14-11 15-10 15-8 19-7z" fill="#2D3039"/>
<path transform="translate(1870,209)" d="m0 0h23l18 3 18 5 21 10 19 13 13 12 10 10 13 17 9 14 9 16 9 21 7 21 5 22 3 24v23l-3 19-4 15-6 15-7 12-7 9-10 10-14 9-12 6-31 6-12 1h-21l-24-4-25-9-16-9-14-10-13-12-9-10-10-15-9-17-7-21-5-30-2-20v-46l2-17 5-23 8-20 8-14 3-3 6-9 12-9 10-6 15-6z" fill="#2D3039"/>
<path transform="translate(1517,669)" d="m0 0h21l16 5 11 6 10 8 6 5 7 8 8 11 8 15 5 16 2 15v15l-3 20-8 24-10 19-12 16-11 14-13 12-13 9-12 7-19 7-9 2h-22l-17-4-16-8-9-7-9-9-9-13-7-16-4-18-1-8v-15l3-21 8-24 11-20 10-14 7-8 9-11 7-7 11-9 14-10 16-8z" fill="#2D3039"/>
<path transform="translate(1856,690)" d="m0 0h8l14 3 14 7 10 8 11 13 10 15 9 19 6 20 3 14 1 15v19l-4 16-6 12-12 19-10 13-9 10-7 8-7 7-11 9-10 7-8 4-10 3-6-1-5-3-5-12-11-30-20-50-18-41-13-27 4-8 13-16 11-14 27-27 14-8 9-3z" fill="#2D3039"/>
<path transform="translate(1655,1035)" d="m0 0h18l81 6 16 4 10 7 6 9 3 9v12l-3 10-6 8-8 7-7 3-5 1h-22l-67-5-18-2-11-4-10-9-5-8-2-8v-10l3-10 6-9 7-6 9-4z" fill="#2D3039"/>
<path transform="translate(1885,908)" d="m0 0h6l2 6 6 25 10 43 11 52-1 5-16 11-19 12-18 10h-2v3l-8 2-1-3-5-67-4-33-9-45-5-10-1-7 2 3 4 10v2l5 2 6 1 15-5 17-12z" fill="#C8CDD1"/>
<path transform="translate(1508,1008)" d="m0 0h14l11 4 9 7 6 9 3 7v12l-5 17-9 30-5 28-1 10v5l-1-4-13-1-34-6-17-4-3-2 4-1 1-15 4-26 8-38 5-13 6-9 7-6z" fill="#C8CDD1"/>
<path transform="translate(560,1152)" d="m0 0h1l3 27 3 44v49l-3 44-5 42-7 41-4 19h-1l1-13 7-39 5-39 2-23 1-16 1-32v-31l-2-42-2-22z" fill="#C8CDD1"/>
<path transform="translate(1790,1206)" d="m0 0 2 1-10 6-19 8-18 6-21 4-11 1-34-1-27-3v-1l20 1h53l28-6 21-8z" fill="#C8CDD1"/>
</svg>
