<?xml version="1.0" encoding="UTF-8"?>
<svg version="1.1" viewBox="0 0 2048 2048" width="512" height="512" xmlns="http://www.w3.org/2000/svg">
<path transform="translate(140,111)" d="m0 0h208l12 3 12 7 9 10 6 12 10 40 23 97 21 88 12 50 1 3 1523 1 8 2 9 4 8 6 7 7 7 14 2 10-1 13-15 63-15 61-20 83-12 49-18 73-17 70-14 58-14 57-14 58-14 57-14 56-7 20-8 16-9 14-10 13-17 17-18 13-21 11-16 6-20 5-14 2-14 1-1146 1-18 4-16 8-11 8-12 12-8 13-6 14-3 13-1 14 2 18 5 15 7 13 10 13 12 10 14 8 15 5 13 2 396 1h906l13 3 11 6 7 6 7 10 4 10 1 4v17l-4 11-6 10-9 9-12 6-7 2-18 1h-49l-1 1 19 10 16 11 11 9 13 12 7 7 11 14 7 10 9 15 10 21 7 21 4 17 3 26v23l-2 21-5 22-8 24-8 16-10 18-13 17-11 12-13 13-13 10-15 10-23 12-22 8-21 5-21 3-23 1-23-2-17-3-21-6-20-8-19-10-16-11-10-8-12-11-9-9-11-14-10-14-10-18-8-19-5-15-5-22-2-15v-35l3-22 6-23 8-21 8-16 10-16 12-16 15-16 12-11 19-14 22-12 4-1v-2l-5 1h-864l-13-1v2l6 2 15 8 12 8 13 10 13 12 10 10 11 14 10 15 9 16 8 19 6 19 5 25 1 8v37l-4 25-6 22-10 24-11 20-10 14-11 13-5 6h-2l-2 4-8 7-15 12-19 12-23 11-24 8-25 5-24 2-25-1-24-4-21-6-15-6-16-8-14-8-19-14-7-7-8-7-11-12-10-13-11-17-11-22-9-27-5-26-1-9v-32l4-27 7-25 6-15 12-23 11-16 9-11 9-10 8-8 8-7 18-13 19-11 6-3-29-2-22-4-17-5-19-8-15-8-16-11-13-11-16-16-10-13-7-11-9-16-8-20-5-18-3-17-1-9v-26l4-26 5-18 9-22 9-16 12-17 11-12 6-7 8-7 13-10 16-10 16-8 19-7 21-5 10-1-4-14-13-56 1-3 325-1 12-3 10-6 5-4 7-10 4-11 1-6v-8l-2-11-6-12-9-10-12-6-6-2-7-1-746-1-13-4-9-6-5-5-6-7-5-10-2-9v-10l3-13 6-11 10-10 8-5 9-3 6-1h376l-7-28-9-38 1-3h295l28-1 13-4 10-7 7-8 5-10 2-7v-17l-4-12-7-11-9-7-8-4-8-2-10-1-424-1-13-4-10-6-9-10-6-12-2-7v-14l4-14 6-9 4-5 13-9 9-3 8-1h60l-14-60-1-6h263l70-1 12-3 8-4 9-7 7-11 4-13v-14l-4-13-7-11-7-6-10-5-12-3-660-1-11-2-14-7-10-10-7-13-2-9v-11l3-12 6-11 5-6 11-8 10-4 5-1h286l-11-47-12-50-22-92-6-26v-2h-162l-10-2-9-4-8-6-7-7-7-14-2-8v-11l3-12 6-11 6-7 10-7 10-4zm503 1514-16 3-17 6-14 8-16 13-10 11-9 14-6 12-5 16-2 9-1 9v16l2 14 5 17 8 16 7 11 11 12 9 8 14 9 12 6 16 5 12 2h26l16-3 16-6 10-5 12-8 12-11 9-10 8-12 8-19 4-16 1-9v-19l-3-17-6-18-8-15-8-11-6-7-8-7-10-7-14-8-21-7-13-2zm1050 0-20 4-19 8-12 8-11 9-7 7-9 12-9 16-6 17-3 19v19l3 17 6 17 8 15 9 12 13 13 18 12 16 7 15 4 8 1h26l16-3 16-6 15-8 14-11 9-9 11-15 8-17 4-13 3-19v-14l-3-20-5-15-8-16-10-14-12-12-14-10-19-9-13-4-13-2z"/>
</svg>
